<svg id="Layer_1" data-name="Layer 1" xmlns="http://www.w3.org/2000/svg" viewBox="0 0 512 512"><title>10s Backward</title><path d="M421.938,90.068C344.672,12.807,225.813,1.126,135.443,55.1L137,46.443a21.337,21.337,0,0,0-42-7.552L83.615,102.177a21.343,21.343,0,0,0,14.25,24.016l55.3,18.437a21.335,21.335,0,0,0,13.5-40.479l-19.12-6.374c74.69-51.138,178.078-43.679,244.224,22.457,74.854,74.86,74.854,196.672,0,271.532-74.875,74.864-196.667,74.864-271.542,0a192.586,192.586,0,0,1-44.125-203,21.334,21.334,0,1,0-39.979-14.907A234.734,234.734,0,0,0,421.938,421.932C513.427,330.438,513.427,181.563,421.938,90.068Z" id="id_101" style="fill: rgb(255, 255, 255);"></path><path d="M192,362.667a21.334,21.334,0,0,0,21.333-21.334V192a21.336,21.336,0,0,0-32.312-18.292l-53.333,32a21.334,21.334,0,0,0,21.958,36.584l21.021-12.615V341.333A21.334,21.334,0,0,0,192,362.667Z" id="id_102" style="fill: rgb(255, 255, 255);"></path><path d="M309.333,362.667c41.865,0,74.667-42.167,74.667-96s-32.8-96-74.667-96-74.666,42.166-74.666,96S267.469,362.667,309.333,362.667Zm0-149.334c15.136,0,32,21.9,32,53.334S324.469,320,309.333,320s-32-21.9-32-53.333S294.2,213.333,309.333,213.333Z" id="id_103" style="fill: rgb(255, 255, 255);"></path></svg>